{"title":"The Crimson Field S01E01 Xvid RB58.avi","uid":9911655,"size":512285054,"categoryP":"video","categoryS":"tv_shows","magnet":"?xt=urn:btih:d96e3e5157c7b1f10381f7d9c3b30a99d703b2ee&amp;dn=The+Crimson+Field+S01E01+Xvid+RB58.avi&amp;tr=udp%3A%2F%2Ftracker.openbittorrent.com%3A80&amp;tr=udp%3A%2F%2Fopen.demonii.com%3A1337&amp;tr=udp%3A%2F%2Ftracker.coppersurfer.tk%3A6969&amp;tr=udp%3A%2F%2Fexodus.desync.com%3A6969","seeders":0,"leechers":1,"uploader":"RedBaron58","files":1,"time":1396909015,"description":"The Crimson Field S01 E01 Xvid\n  &lt;a href=&quot;\nhttp://www.imdb.com/title/tt3494220/&quot; rel=&quot;nofollow&quot; target=&quot;_NEW&quot;&gt;\nhttp://www.imdb.com/title/tt3494220/&lt;/a&gt;\n\n\nPlease be patient My upload speed is limited, but I am online most the time and during the night.\nThank you for your kind comments and thumbs ups on my other torrents, your feedback is welcome.\n\n\nAbout the Episode:\nMedical drama that follows the brave doctors, nurses and volunteer women working in First World War France, \npatching up soldiers wounded in the trenches. \nSuranne Jones stars as new arrival Sister Joan Livesey, a suffragist whose modern approach to the \ntented hospital does not go down too well with the old guard,\n\n\nI hope you enjoy.\n\n\nTechnical:\n\nGeneral\nComplete name                            : G:The Crimson Field S01E01 Xvid RB58.avi\nFormat                                   : AVI\nFormat/Info                              : Audio Video Interleave\nFile size                                : 489 MiB\nDuration                                 : 57mn 23s\nOverall bit rate                         : 1 190 Kbps\n\nVideo\nID                                       : 0\nFormat                                   : MPEG-4 Visual\nFormat profile                           : Advanced Simple@L4\nFormat settings, BVOP                    : 2\nFormat settings, QPel                    : No\nFormat settings, GMC                     : No warppoints\nFormat settings, Matrix                  : Default (H.263)\nCodec ID                                 : DIVX\nCodec ID/Info                            : Project Mayo\nCodec ID/Hint                            : DivX 4\nDuration                                 : 57mn 23s\nBit rate                                 : 1 048 Kbps\nWidth                                    : 704 pixels\nHeight                                   : 396 pixels\nDisplay aspect ratio                     : 16:9\nFrame rate                               : 25.000 fps\nColor space                              : YUV\nChroma subsampling                       : 4:2:0\nBit depth                                : 8 bits\nScan type                                : Progressive\nCompression mode                         : Lossy\nBits/(Pixel*Frame)                       : 0.150\nStream size                              : 430 MiB (88%)\nWriting library                          : XviD 64\n\nAudio\nID                                       : 1\nFormat                                   : MPEG Audio\nFormat version                           : Version 1\nFormat profile                           : Layer 3\nCodec ID                                 : 55\nCodec ID/Hint                            : MP3\nDuration                                 : 57mn 23s\nBit rate mode                            : Constant\nBit rate                                 : 128 Kbps\nChannel(s)                               : 2 channels\nSampling rate                            : 48.0 KHz\nCompression mode                         : Lossy\nStream size                              : 52.5 MiB (11%)\nAlignment                                : Aligned on interleaves\nInterleave, duration                     : 24 ms (0.60 video frame)\nWriting library                          : LAME3.99.5","torrent":{"xt":"urn:btih:d96e3e5157c7b1f10381f7d9c3b30a99d703b2ee","amp;dn":"The+Crimson+Field+S01E01+Xvid+RB58.avi","amp;tr":["udp%3A%2F%2Ftracker.openbittorrent.com%3A80","udp%3A%2F%2Fopen.demonii.com%3A1337","udp%3A%2F%2Ftracker.coppersurfer.tk%3A6969","udp%3A%2F%2Fexodus.desync.com%3A6969"],"infoHash":"d96e3e5157c7b1f10381f7d9c3b30a99d703b2ee","infoHashBuffer":{"type":"Buffer","data":[217,110,62,81,87,199,177,241,3,129,247,217,195,179,10,153,215,3,178,238]},"announce":[],"urlList":[]}}